/* XPM */
static char * preto_xpm[] = {
"64 64 17 1",
" 	c #070602",
".	c #080703",
"+	c #090804",
"@	c #0A0905",
"#	c #0D0C08",
"$	c #050400",
"%	c #060501",
"&	c #030200",
"*	c #040300",
"=	c #0B0A06",
"-	c #0C0B07",
";	c #070803",
">	c #060702",
",	c #050601",
"'	c #040500",
")	c #030400",
"!	c #080904",
"  ...++++@@+..@#++....++.    .++........+ $ ++%&. %%  $*. %$$%.+",
"   .++@@+@@+..=#+..  ..+.  %% +@        @ ** . $. %%%%$*. %$$%.+",
"%% .++@@@+...+@=+..  ..+ .. % .@        @ **$  % %$%  %$  %%% .+",
"%% .+@@==.%%+@@+..    .. .+.  .@        . %$$%%% %$% . %%%%%   .",
"%% .+@@==.$$+=@...    ..%.++  +@        %  %%$$%%%$%... %%      ",
"% .+++++. $%+@@@*$ .+++...++++++*$%......%$$%  % %$%... %%%     ",
"% .+++++. % +@@@$% .+++.....++++$% ....  %% .. $ %$%... %%%     ",
"% .+++++. % .@@@$% ..+..........  .....    .@+ % %%%.+. %%%     ",
"% .+++++..  .++@%  ..........   ....... +...@@+ . % .+. %%%     ",
"% .+++++......+@     ...+...    ++......-@  .@@@. % .+. %%%     ",
"% .+++++.++.  .@..    ..+++..   ..   ..+#@ % +==. % +++.%%%     ",
"% .+++++.++.  .@+.  % ..@@++..    %%  ++-@  .+@@.   +@+.%%%     ",
"% .+++++.+@+ %.@+. %% ..==@++.  %%$$% +@@+..+@++.   +@+.%%%     ",
".+@@+.++%+==@++@+ $$ . $. % ...    ..... @+$* ++    ....*%.. $$%",
".+@@+.++% +++...+ %%   %. %%.. %   ...++ ++%$ +.    ....*%.. %%%",
".+@+...@   ... %+ %%%  % %$% . %   .+@@@%+@ % +     ....$%..%%% ",
".+++  .@+.  ++ %.. %%%%% %$%  %$%  .+@==$+@ %..     ....% . %%% ",
".++.  .@=+..+@. .. %%%%  %$%  %$%  .+@==$+@ %..     ....% . %% .",
".+. %%.@-=+++++. .. $$%  %$% . %   .+@@@%+@ % +     .... .. %% +",
".+. $%.@=@@.   . .. $$%.. %%.. %   ...++ ++%$ +.    .... .. %%.+",
".+.%$%.@+@+ $*%. .. $$%.. % ...    ..... @+$* ++    ....... %%.+",
"++@@+. %++.     % .++. %+++...  $ ++.% .@@+.  ......    ....    ",
"+++++. %+..   .....  ...+++...  %.++ % .+.  %%  ....    ....    ",
"+++++. %... ..+++. %% .++++..... ... %.+  %%$$%%    ........    ",
"++++..  ..  .+@@+..  ..+..........  % .+  %%%%%     ........    ",
"@@+..   .   ..+@..++++..........+. %  ...     ..    ........    ",
"@@+.   ..     .+ .+@@+. .....++++.% ...      ..+%%  ..++....    ",
"=@+.   ..  %%%  ++++++++  ...+++. % ++.%%%%%% ..%%  ..++....    ",
"=@+   ...  %$$$%@+....+@  ...+++. %.++ $$***$%% %%% .+++....    ",
".... %$*. %%%% . %% .++. .+.  +@........*$$%% ..*+ %@.*  .+ $$% ",
".... %$$.  %%  .. % .+.  .+.  +@........$$%%%   $+ %+.$. .+. %% ",
"....  %$.  %%  .+.  .. % .+.  +@........%%%%%%   + %. %. .++.   ",
"..... %%.      .@.  .. $ .+.  +@........     %%%.. %   +%.+@@. %",
" .....   ...... @.  .. $ .+.  +@               %+.  % +.% .@@+.%",
" ..++..  ..++.. +.  .. % .+.  +@                + .+% +.   .++. ",
" ..+++.. ..++.. . % .+.  .+.  +@        %%  ...++%+@ .@% %% .+. ",
"  .+++.. .++++.  %% .++. .+.  +@        %%% ..++.$+= .@% %$$ +. ",
"  ..+++@% .++. %@+.   .+..    ..%  .... ..++++++.%$%+@+ ..    ..",
" ...++++  ....  ++........    ..%% ....   .++++..%% .++ ..    ..",
"....++++  ....  +++++.  .  %%  .%% ...  $%.+@+  . % .+. .  %%  .",
"++++++++  ....  ..+++. %.  %%  .%%  ..  *$.++. $.   ... .  %%  .",
"++++++++..    ....+++. %  %%%%  $%%     *$ ++.%$ ...   .  %%%%  ",
"@@@@++++..    ..+++++.    %%%%  $$%    %*% .+. % .+. % .  %%%%  ",
"=@@@++++..    ..++...... %%%%%% $$%   %%%% ...   ++. %%. %%%%%% ",
"==@@+++.+. %% .+@+.   .+ %%$$%% $$%   %%   ..... +@+%$%. %%$$%% ",
".@--@..+@@+ $$%.%.++...+@+ %%%.+;;>>,,,''''>;;,)% ++ % ..  %%%  ",
"@=-=@.  +++ $$ + .+.  +@@+ %%%..;;>>,,''')',;;,)$ +. %  . %$%  %",
"-==@@+ $... %%.+ .. % +=++ %%  .>>>,,'''))),>>,)$%.. %% .%*$%  %",
"-@++@@.% .. %%.@...%$%+=+.. %  .>>>,,'''))),>>')$%   %%%.%**%. %",
"@. .+@@. .. %%.@.. %$%.=+..     ;>>>,'''))',;>,)%%%   %$ %*$%.. ",
"..  +@@@... %%.+   %%%.@....    ;;;>>,,''''>;;,' %% ..%$%%%%% .+",
".... .+@+++ $$ +%   %% +.....  %!!;;>>,,,,,>!!>'  % .+ $$ ..% +=",
"+@@.%%.@@@+ $$%.$%.. % ......  %!!!;;>>>,,,;!!;,. % ++ %* @+%%+#",
".==. @@ +.   .+@+ %%   % ..+..%% .. %%.@%%%%%%  %%  ...+% . %%.@",
".@@..@@ +.   .+@+.%% . % ..+.. %% .. %.@%%%%   %        $ ..   .",
".++..++.+.   .+@@.  ... .....  %% ... ..%% .. %%    %%%%*%.+.   ",
".....++++.   .+@@+  .+. .....   $ .++.. % .++.%$   %%$$$%%      ",
"   .+.+++.   .+@@+  .+. ...     %% .++.  .+@+.%$   %%$$$. $$$ .+",
" %%.+..@+.   .+@@.  ... +..       % ++. ++@@+. %    %%%%+ *&*%.+",
" $%.+ .=+.   .+@+.%% . %+.  %  .. %%.++.@@@++.          .%*&$ ..",
" $$++ .=+.   .+@+ %%   %++  %  .+ $$ ++.==@+..  %%  ...+ $**%. %",
"% +. %.+.....   .    %%%%% +@@.% %$$ ...@+%&%+.*    .+@=. % .+. ",
"% ++  .++++.... ...     %%%.@@.% %$$ ...@+%*%@.*    .+@=+.  .+. ",
" .++.  .@++++........   $$%.@@+ .%$$ .. @+ $ @+$.   .+@@@+..++ %"};
