/* XPM */
static char * west_xpm[] = {
"64 64 318 2",
"  	c #8F6A52",
". 	c #93725D",
"+ 	c #8D6954",
"@ 	c #957155",
"# 	c #916D51",
"$ 	c #8C654C",
"% 	c #866145",
"& 	c #8D6448",
"* 	c #855F44",
"= 	c #88644B",
"- 	c #987054",
"; 	c #825F45",
"> 	c #785643",
", 	c #7F5B44",
"' 	c #876551",
") 	c #674F40",
"! 	c #83614B",
"~ 	c #96745F",
"{ 	c #8C6954",
"] 	c #866451",
"^ 	c #6B5243",
"/ 	c #8A654D",
"( 	c #956747",
"_ 	c #946042",
": 	c #956141",
"< 	c #916040",
"[ 	c #916143",
"} 	c #9B694D",
"| 	c #9C6241",
"1 	c #935D3D",
"2 	c #A76C49",
"3 	c #AB744A",
"4 	c #936745",
"5 	c #895B40",
"6 	c #956847",
"7 	c #916646",
"8 	c #765641",
"9 	c #7F5D47",
"0 	c #986949",
"a 	c #906545",
"b 	c #7B5A45",
"c 	c #997157",
"d 	c #A16C4D",
"e 	c #9A6645",
"f 	c #996141",
"g 	c #986443",
"h 	c #8E6344",
"i 	c #8C5E3F",
"j 	c #9E6948",
"k 	c #9B6745",
"l 	c #A56D45",
"m 	c #99663F",
"n 	c #895938",
"o 	c #996440",
"p 	c #996744",
"q 	c #956545",
"r 	c #7A5641",
"s 	c #8E6951",
"t 	c #A36E4E",
"u 	c #9A6545",
"v 	c #996844",
"w 	c #946444",
"x 	c #7F5B45",
"y 	c #906849",
"z 	c #996A4A",
"A 	c #966340",
"B 	c #98633D",
"C 	c #805236",
"D 	c #81593D",
"E 	c #8C6140",
"F 	c #936544",
"G 	c #996848",
"H 	c #9E6946",
"I 	c #9A6B45",
"J 	c #95623F",
"K 	c #92623E",
"L 	c #95613C",
"M 	c #906144",
"N 	c #755848",
"O 	c #846044",
"P 	c #9C6C4C",
"Q 	c #95613D",
"R 	c #8E6043",
"S 	c #7C5E4C",
"T 	c #826147",
"U 	c #966840",
"V 	c #A06A3F",
"W 	c #9D6943",
"X 	c #8E5D3D",
"Y 	c #885338",
"Z 	c #986B4B",
"` 	c #906848",
" .	c #91684A",
"..	c #966F50",
"+.	c #936B48",
"@.	c #8F623E",
"#.	c #926440",
"$.	c #8C5B3C",
"%.	c #895B3F",
"&.	c #725144",
"*.	c #795B42",
"=.	c #986941",
"-.	c #A0693F",
";.	c #8C5C3C",
">.	c #875A3E",
",.	c #7A5748",
"'.	c #765740",
").	c #8E623F",
"!.	c #9A663F",
"~.	c #926341",
"{.	c #9B6943",
"].	c #8D5C3E",
"^.	c #855F45",
"/.	c #8B5E3D",
"(.	c #8B5E3C",
"_.	c #8B6043",
":.	c #83583E",
"<.	c #8C5F3D",
"[.	c #93623E",
"}.	c #906241",
"|.	c #8A5C3E",
"1.	c #6E5140",
"2.	c #6E523C",
"3.	c #906440",
"4.	c #9A663E",
"5.	c #916341",
"6.	c #885B3E",
"7.	c #755644",
"8.	c #916B4F",
"9.	c #8D613C",
"0.	c #905F36",
"a.	c #875533",
"b.	c #8A5B39",
"c.	c #8E6240",
"d.	c #885E3E",
"e.	c #91603F",
"f.	c #845537",
"g.	c #885A3B",
"h.	c #7F5437",
"i.	c #80573D",
"j.	c #8C5F3E",
"k.	c #835939",
"l.	c #835B41",
"m.	c #65493A",
"n.	c #866449",
"o.	c #8F633D",
"p.	c #905E36",
"q.	c #845939",
"r.	c #815940",
"s.	c #6D503F",
"t.	c #5F4230",
"u.	c #694B2C",
"v.	c #674A34",
"w.	c #724E3A",
"x.	c #674532",
"y.	c #694F39",
"z.	c #6E503E",
"A.	c #664B40",
"B.	c #6F5549",
"C.	c #826855",
"D.	c #6D5747",
"E.	c #745645",
"F.	c #6F4E39",
"G.	c #725540",
"H.	c #775846",
"I.	c #4B372C",
"J.	c #563D2C",
"K.	c #6B4C2D",
"L.	c #674934",
"M.	c #725641",
"N.	c #755744",
"O.	c #533C30",
"P.	c #78563E",
"Q.	c #7D5C46",
"R.	c #8B684E",
"S.	c #6E4F3F",
"T.	c #745541",
"U.	c #7C5D4C",
"V.	c #5D483B",
"W.	c #7A5B48",
"X.	c #8C6D5A",
"Y.	c #856452",
"Z.	c #8D6B51",
"`.	c #8A674E",
" +	c #86624A",
".+	c #805D43",
"++	c #866045",
"@+	c #78553D",
"#+	c #805E43",
"$+	c #835E44",
"%+	c #965F3F",
"&+	c #AB6F4A",
"*+	c #AE774B",
"=+	c #956946",
"-+	c #8C5D41",
";+	c #986A47",
">+	c #946847",
",+	c #785842",
"'+	c #825F48",
")+	c #9A6B49",
"!+	c #966142",
"~+	c #976342",
"{+	c #936241",
"]+	c #936244",
"^+	c #9D6A4E",
"/+	c #9E6341",
"(+	c #97603E",
"_+	c #AB6F4B",
":+	c #AE764B",
"<+	c #986444",
"[+	c #98653E",
"}+	c #885938",
"|+	c #986440",
"1+	c #986743",
"2+	c #795641",
"3+	c #A36D4E",
"4+	c #986140",
"5+	c #8C5D3F",
"6+	c #A46D45",
"7+	c #9F6948",
"8+	c #9A6848",
"9+	c #94623F",
"0+	c #745748",
"a+	c #9B6C4C",
"b+	c #8D6140",
"c+	c #9A6B44",
"d+	c #936643",
"e+	c #91684B",
"f+	c #8F623D",
"g+	c #8B5B3C",
"h+	c #895C3F",
"i+	c #8F6848",
"j+	c #8B6042",
"k+	c #8A5C3F",
"l+	c #8C5F3F",
"m+	c #87644A",
"n+	c #885E3F",
"o+	c #915F3F",
"p+	c #895E3F",
"q+	c #6F5548",
"r+	c #826754",
"s+	c #725541",
"t+	c #4B362C",
"u+	c #573D2C",
"v+	c #724D3A",
"w+	c #694F3A",
"x+	c #826854",
"y+	c #6D503D",
"z+	c #684C42",
"A+	c #84634E",
"B+	c #8A6B58",
"C+	c #86624B",
"D+	c #775740",
"E+	c #6E4F3E",
"F+	c #795B47",
"G+	c #7A5C4B",
"H+	c #614C3E",
"I+	c #8D674E",
"J+	c #976948",
"K+	c #936243",
"L+	c #966946",
"M+	c #8C5C41",
"N+	c #795842",
"O+	c #815F48",
"P+	c #986A48",
"Q+	c #936746",
"R+	c #7E5C46",
"S+	c #987057",
"T+	c #A06C4D",
"U+	c #986141",
"V+	c #9E6848",
"W+	c #99653F",
"X+	c #8D6851",
"Y+	c #996743",
"Z+	c #936444",
"`+	c #7F5A44",
" @	c #8D5F3D",
".@	c #916241",
"+@	c #9C6943",
"@@	c #8D5C3F",
"#@	c #8C5E3D",
"$@	c #8C6043",
"%@	c #8D603F",
"&@	c #835437",
"*@	c #875A3B",
"=@	c #7E5337",
"-@	c #7F573D",
";@	c #8B5E3E",
">@	c #825839",
",@	c #815A41",
"'@	c #63483A",
")@	c #856349",
"!@	c #8D623D",
"~@	c #8E5D35",
"{@	c #855432",
"]@	c #895A38",
"^@	c #8B613F",
"/@	c #865D3E",
"(@	c #8F5E3E",
"_@	c #74584B",
":@	c #856954",
"<@	c #715948",
"[@	c #795946",
"}@	c #74503A",
"|@	c #765842",
"1@	c #7E5C48",
"2@	c #4F382D",
"3@	c #5B3F2D",
"4@	c #72502F",
"5@	c #704F36",
"6@	c #78513C",
"7@	c #6D4834",
"8@	c #71543D",
"9@	c #775541",
"0@	c #6F5045",
"a@	c #74594B",
"b@	c #765541",
"c@	c #705246",
"  . + @ # $ % & * = - ; > , ' ) ! ~ { @ # $ % & * = - ; > , ' ) ! ~ { @ # $ % & * = - ; > , ' ) ! ~ { @ # $ % & * = - ; > , ] ^ ",
"/ ( _ : < [ } | 1 2 3 4 5 6 7 8 9 0 _ : < [ } | 1 2 3 4 5 6 7 8 9 0 _ : < [ } | 1 2 3 4 5 6 7 8 9 0 _ : < [ } | 1 2 3 4 5 6 a b ",
"c d e f g h i j k l m n o p q r s t u f g h i j k l m n o p q r s t u f g h i j k l m n o p q r s t u f g h i j k l m n o v w x ",
"y z A B C D E F G H I J K L M N O P A B C D E F G H I J K L M N O P A B C D E F G H I J K L M N O P A B C D E F G H I J K Q R S ",
"T U V W X Y Z `  ...+.@.#.$.%.&.*.=.-.W X Y Z `  ...+.@.#.$.%.&.*.=.-.W X Y Z `  ...+.@.#.$.%.&.*.=.-.W X Y Z `  ...+.@.#.;.>.,.",
"'.).!.~.{.].^./.(._.:.<.[.}.|.1.2.3.4.~.{.].^./.(._.:.<.[.}.|.1.2.3.4.~.{.].^./.(._.:.<.[.}.|.1.2.3.4.~.{.].^./.(._.:.<.[.5.6.7.",
"8.9.0.a.b.c.d.e.f.g.h.i.j.k.l.m.n.o.p.a.b.c.d.e.f.g.h.i.j.k.l.m.n.o.p.a.b.c.d.e.f.g.h.i.j.k.l.m.n.o.p.a.b.c.d.e.f.g.h.i.j.q.r.s.",
"t.u.v.w.x.y.z.A.B.C.D.E.F.G.H.I.J.K.L.w.x.y.z.A.B.C.D.E.F.G.H.I.J.K.L.w.x.y.z.A.B.C.D.E.F.G.H.I.J.K.L.w.x.y.z.A.B.C.D.E.F.M.N.O.",
"P.Q.R.'.S.T.U.V.W.X.Y.Z.`. +.+++@+Q.R.'.S.T.U.V.W.X.Y.Z.`. +.+++@+Q.R.'.S.T.U.V.W.X.Y.Z.`. +.+++@+Q.R.'.S.T.U.V.W.X.Y.Z.`. +#+$+",
"%+&+*+=+-+;+>+,+'+)+!+~+{+]+^+/+(+_+:+=+-+;+>+,+'+)+!+~+{+]+^+/+(+_+:+=+-+;+>+,+'+)+!+~+{+]+^+/+(+_+:+=+-+;+>+,+'+)+!+~+{+]+^+/+",
"<+l [+}+|+1+q 2+s 3+u 4+g h 5+j e 6+[+}+|+1+q 2+s 3+u 4+g h 5+j e 6+[+}+|+1+q 2+s 3+u 4+g h 5+j e 6+[+}+|+1+q 2+s 3+u 4+g h 5+7+",
"8+H I 9+K L M 0+O a+A B C D b+F G H c+9+K L M 0+O a+A B C D b+F G H c+9+K L M 0+O a+A B C D b+F G H c+9+K L M 0+O a+A B C D b+d+",
"e+..+.f+#.g+h+&.*.=.-.W X Y Z `  ...+.f+#.g+h+&.*.=.-.W X Y Z `  ...+.f+#.g+h+&.*.=.-.W X Y Z `  ...+.f+#.g+h+&.*.=.-.W X Y Z i+",
"<.j+:.<.[.}.k+1.2.3.!.~.{.].^./.(._.:.<.[.}.k+1.2.3.!.~.{.].^./.(._.:.<.[.}.k+1.2.3.!.~.{.].^./.(._.:.<.[.}.k+1.2.3.!.~.{.].* l+",
"f.g.h.i.j.k.l.m.m+o.p.a.b.c.n+o+f.g.h.i.j.k.l.m.m+o.p.a.b.c.n+o+f.g.h.i.j.k.l.m.m+o.p.a.b.c.n+o+f.g.h.i.j.k.l.m.m+o.p.a.b.c.p+o+",
"q+r+D.E.F.s+H.t+u+K.L.v+x.w+z.A.B.x+D.E.F.s+H.t+u+K.L.v+x.w+z.A.B.x+D.E.F.s+H.t+u+K.L.v+x.w+z.A.B.x+D.E.F.s+H.t+u+K.L.v+x.w+y+z+",
"A+B+Y.Z.`.C+.+++@+Q.R.D+E+T.U.V.F+X.Y.Z.`.C+.+++@+Q.R.D+E+T.U.V.F+X.Y.Z.`.C+.+++@+Q.R.D+E+T.U.V.F+X.Y.Z.`.C+.+++@+Q.R.D+E+T.G+H+",
"I+J+!+~+{+K+^+/+(+_+*+L+M+;+>+N+O+)+!+~+{+K+^+/+(+_+*+L+M+;+>+N+O+)+!+~+{+K+^+/+(+_+*+L+M+;+>+N+O+)+!+~+{+K+^+/+(+_+*+L+M+P+Q+R+",
"S+T+u U+g h 5+V+e 6+W+}+|+1+q 2+X+t u U+g h 5+V+e 6+W+}+|+1+q 2+X+t u U+g h 5+V+e 6+W+}+|+1+q 2+X+t u U+g h 5+V+e 6+W+}+|+Y+Z+`+",
"y z A B C D E F G H I J K L M N O P A B C D E F G H I J K L M N O P A B C D E F G H I J K L M N O P A B C D E F G H I J K Q R S ",
"T U V W X Y Z `  ...+.@.#.$.%.&.*.=.-.W X Y Z `  ...+.@.#.$.%.&.*.=.-.W X Y Z `  ...+.@.#.$.%.&.*.=.-.W X Y Z `  ...+.@.#.;.>.,.",
"'.).!.~.{.].^./.(._.:.<.[.}.|.1.2.3.4.~.{.].^./.(._.:.<.[.}.|.1.2.3.4.~.{.].^./.(._.:.<.[.}.|.1.2.3.4.~.{.].^./.(._.:.<.[.5.6.7.",
"8.9.0.a.b.c.d.e.f.g.h.i.j.k.l.m.n.o.p.a.b.c.d.e.f.g.h.i.j.k.l.m.n.o.p.a.b.c.d.e.f.g.h.i.j.k.l.m.n.o.p.a.b.c.d.e.f.g.h.i.j.q.r.s.",
"t.u.v.w.x.y.z.A.B.C.D.E.F.G.H.I.J.K.L.w.x.y.z.A.B.C.D.E.F.G.H.I.J.K.L.w.x.y.z.A.B.C.D.E.F.G.H.I.J.K.L.w.x.y.z.A.B.C.D.E.F.M.N.O.",
"P.Q.R.'.S.T.U.V.W.X.Y.Z.`. +.+++@+Q.R.'.S.T.U.V.W.X.Y.Z.`. +.+++@+Q.R.'.S.T.U.V.W.X.Y.Z.`. +.+++@+Q.R.'.S.T.U.V.W.X.Y.Z.`. +#+$+",
"%+&+*+=+-+;+>+,+'+)+!+~+{+]+^+/+(+_+:+=+-+;+>+,+'+)+!+~+{+]+^+/+(+_+:+=+-+;+>+,+'+)+!+~+{+]+^+/+(+_+:+=+-+;+>+,+'+)+!+~+{+]+^+/+",
"<+l [+}+|+1+q 2+s 3+u 4+g h 5+j e 6+[+}+|+1+q 2+s 3+u 4+g h 5+j e 6+[+}+|+1+q 2+s 3+u 4+g h 5+j e 6+[+}+|+1+q 2+s 3+u 4+g h 5+7+",
"8+H I 9+K L M 0+O a+A B C D b+F G H c+9+K L M 0+O a+A B C D b+F G H c+9+K L M 0+O a+A B C D b+F G H c+9+K L M 0+O a+A B C D b+d+",
"e+..+.f+#.g+h+&.*.=.-.W X Y Z `  ...+.f+#.g+h+&.*.=.-.W X Y Z `  ...+.f+#.g+h+&.*.=.-.W X Y Z `  ...+.f+#.g+h+&.*.=.-.W X Y Z i+",
"<.j+:.<.[.}.k+1.2.3.!.~.{.].^./.(._.:.<.[.}.k+1.2.3.!.~.{.].^./.(._.:.<.[.}.k+1.2.3.!.~.{.].^./.(._.:.<.[.}.k+1.2.3.!.~.{.].* l+",
"f.g.h.i.j.k.l.m.m+o.p.a.b.c.n+o+f.g.h.i.j.k.l.m.m+o.p.a.b.c.n+o+f.g.h.i.j.k.l.m.m+o.p.a.b.c.n+o+f.g.h.i.j.k.l.m.m+o.p.a.b.c.p+o+",
"q+r+D.E.F.s+H.t+u+K.L.v+x.w+z.A.B.x+D.E.F.s+H.t+u+K.L.v+x.w+z.A.B.x+D.E.F.s+H.t+u+K.L.v+x.w+z.A.B.x+D.E.F.s+H.t+u+K.L.v+x.w+y+z+",
"A+B+Y.Z.`.C+.+++@+Q.R.D+E+T.U.V.F+X.Y.Z.`.C+.+++@+Q.R.D+E+T.U.V.F+X.Y.Z.`.C+.+++@+Q.R.D+E+T.U.V.F+X.Y.Z.`.C+.+++@+Q.R.D+E+T.G+H+",
"I+J+!+~+{+K+^+/+(+_+*+L+M+;+>+N+O+)+!+~+{+K+^+/+(+_+*+L+M+;+>+N+O+)+!+~+{+K+^+/+(+_+*+L+M+;+>+N+O+)+!+~+{+K+^+/+(+_+*+L+M+P+Q+R+",
"S+T+u U+g h 5+V+e 6+W+}+|+1+q 2+X+t u U+g h 5+V+e 6+W+}+|+1+q 2+X+t u U+g h 5+V+e 6+W+}+|+1+q 2+X+t u U+g h 5+V+e 6+W+}+|+Y+Z+`+",
"y z A B C D E F G H I J K L M N O P A B C D E F G H I J K L M N O P A B C D E F G H I J K L M N O P A B C D E F G H I J K Q R S ",
"T U V W X Y Z `  ...+.@.#.$.%.&.*.=.-.W X Y Z `  ...+.@.#.$.%.&.*.=.-.W X Y Z `  ...+.@.#.$.%.&.*.=.-.W X Y Z `  ...+.@.#.;.>.,.",
"'.).!.~.{.].^./.(._.:.<.[.}.|.1.2.3.4.~.{.].^./.(._.:.<.[.}.|.1.2.3.4.~.{.].^./.(._.:.<.[.}.|.1.2.3.4.~.{.].^./.(._.:.<.[.5.6.7.",
"8.9.0.a.b.c.d.e.f.g.h.i.j.k.l.m.n.o.p.a.b.c.d.e.f.g.h.i.j.k.l.m.n.o.p.a.b.c.d.e.f.g.h.i.j.k.l.m.n.o.p.a.b.c.d.e.f.g.h.i.j.q.r.s.",
"t.u.v.w.x.y.z.A.B.C.D.E.F.G.H.I.J.K.L.w.x.y.z.A.B.C.D.E.F.G.H.I.J.K.L.w.x.y.z.A.B.C.D.E.F.G.H.I.J.K.L.w.x.y.z.A.B.C.D.E.F.M.N.O.",
"P.Q.R.'.S.T.U.V.W.X.Y.Z.`. +.+++@+Q.R.'.S.T.U.V.W.X.Y.Z.`. +.+++@+Q.R.'.S.T.U.V.W.X.Y.Z.`. +.+++@+Q.R.'.S.T.U.V.W.X.Y.Z.`. +#+$+",
"%+&+*+=+-+;+>+,+'+)+!+~+{+]+^+/+(+_+:+=+-+;+>+,+'+)+!+~+{+]+^+/+(+_+:+=+-+;+>+,+'+)+!+~+{+]+^+/+(+_+:+=+-+;+>+,+'+)+!+~+{+]+^+/+",
"<+l [+}+|+1+q 2+s 3+u 4+g h 5+j e 6+[+}+|+1+q 2+s 3+u 4+g h 5+j e 6+[+}+|+1+q 2+s 3+u 4+g h 5+j e 6+[+}+|+1+q 2+s 3+u 4+g h 5+7+",
"8+H I 9+K L M 0+O a+A B C D b+F G H c+9+K L M 0+O a+A B C D b+F G H c+9+K L M 0+O a+A B C D b+F G H c+9+K L M 0+O a+A B C D b+d+",
"e+..+.f+#.g+h+&.*.=.-.W X Y Z `  ...+.f+#.g+h+&.*.=.-.W X Y Z `  ...+.f+#.g+h+&.*.=.-.W X Y Z `  ...+.f+#.g+h+&.*.=.-.W X Y Z i+",
"<.j+:.<.[.}.k+1.2.3.!.~.{.].^./.(._.:.<.[.}.k+1.2.3.!.~.{.].^./.(._.:.<.[.}.k+1.2.3.!.~.{.].^./.(._.:.<.[.}.k+1.2.3.!.~.{.].* l+",
"f.g.h.i.j.k.l.m.m+o.p.a.b.c.n+o+f.g.h.i.j.k.l.m.m+o.p.a.b.c.n+o+f.g.h.i.j.k.l.m.m+o.p.a.b.c.n+o+f.g.h.i.j.k.l.m.m+o.p.a.b.c.p+o+",
"q+r+D.E.F.s+H.t+u+K.L.v+x.w+z.A.B.x+D.E.F.s+H.t+u+K.L.v+x.w+z.A.B.x+D.E.F.s+H.t+u+K.L.v+x.w+z.A.B.x+D.E.F.s+H.t+u+K.L.v+x.w+y+z+",
"A+B+Y.Z.`.C+.+++@+Q.R.D+E+T.U.V.F+X.Y.Z.`.C+.+++@+Q.R.D+E+T.U.V.F+X.Y.Z.`.C+.+++@+Q.R.D+E+T.U.V.F+X.Y.Z.`.C+.+++@+Q.R.D+E+T.G+H+",
"I+J+!+~+{+K+^+/+(+_+*+L+M+;+>+N+O+)+!+~+{+K+^+/+(+_+*+L+M+;+>+N+O+)+!+~+{+K+^+/+(+_+*+L+M+;+>+N+O+)+!+~+{+K+^+/+(+_+*+L+M+P+Q+R+",
"S+T+u U+g h 5+V+e 6+W+}+|+1+q 2+X+t u U+g h 5+V+e 6+W+}+|+1+q 2+X+t u U+g h 5+V+e 6+W+}+|+1+q 2+X+t u U+g h 5+V+e 6+W+}+|+Y+Z+`+",
"y z A B C D E F G H I J K L M N O P A B C D E F G H I J K L M N O P A B C D E F G H I J K L M N O P A B C D E F G H I J K Q R S ",
"T U V W X Y Z `  ...+.@.#.$.%.&.*.=.-.W X Y Z `  ...+.@.#.$.%.&.*.=.-.W X Y Z `  ...+.@.#.$.%.&.*.=.-.W X Y Z `  ...+.@.#.;.>.,.",
"'.).!.~.{.].^./.(._.:.<.[.}.|.1.2.3.4.~.{.].^./.(._.:.<.[.}.|.1.2.3.4.~.{.].^./.(._.:.<.[.}.|.1.2.3.4.~.{.].^./.(._.:.<.[.5.6.7.",
"8.9.0.a.b.c.d.e.f.g.h.i.j.k.l.m.n.o.p.a.b.c.d.e.f.g.h.i.j.k.l.m.n.o.p.a.b.c.d.e.f.g.h.i.j.k.l.m.n.o.p.a.b.c.d.e.f.g.h.i.j.q.r.s.",
"t.u.v.w.x.y.z.A.B.C.D.E.F.G.H.I.J.K.L.w.x.y.z.A.B.C.D.E.F.G.H.I.J.K.L.w.x.y.z.A.B.C.D.E.F.G.H.I.J.K.L.w.x.y.z.A.B.C.D.E.F.M.N.O.",
"P.Q.R.'.S.T.U.V.W.X.Y.Z.`. +.+++@+Q.R.'.S.T.U.V.W.X.Y.Z.`. +.+++@+Q.R.'.S.T.U.V.W.X.Y.Z.`. +.+++@+Q.R.'.S.T.U.V.W.X.Y.Z.`. +#+$+",
"%+&+*+=+-+;+>+,+'+)+!+~+{+]+^+/+(+_+:+=+-+;+>+,+'+)+!+~+{+]+^+/+(+_+:+=+-+;+>+,+'+)+!+~+{+]+^+/+(+_+:+=+-+;+>+,+'+)+!+~+{+]+^+/+",
"<+l [+}+|+1+q 2+s 3+u 4+g h 5+j e 6+[+}+|+1+q 2+s 3+u 4+g h 5+j e 6+[+}+|+1+q 2+s 3+u 4+g h 5+j e 6+[+}+|+1+q 2+s 3+u 4+g h 5+7+",
"8+H I 9+K L M 0+O a+A B C D b+F G H c+9+K L M 0+O a+A B C D b+F G H c+9+K L M 0+O a+A B C D b+F G H c+9+K L M 0+O a+A B C D b+d+",
"e+..+.f+#.g+h+&.*.=.-.W X Y Z `  ...+.f+#.g+h+&.*.=.-.W X Y Z `  ...+.f+#.g+h+&.*.=.-.W X Y Z `  ...+.f+#.g+h+&.*.=.-.W X Y Z i+",
"<.j+:. @[..@k+1.2.3.!.~.+@@@^.#@(.$@:. @[..@k+1.2.3.!.~.+@@@^.#@(.$@:. @[..@k+1.2.3.!.~.+@@@^.#@(.$@:. @[..@k+1.2.3.!.~.+@@@^.%@",
"&@*@=@-@;@>@,@'@)@!@~@{@]@^@/@(@&@*@=@-@;@>@,@'@)@!@~@{@]@^@/@(@&@*@=@-@;@>@,@'@)@!@~@{@]@^@/@(@&@*@=@-@;@>@,@'@)@!@~@{@]@^@/@(@",
"_@:@<@[@}@|@1@2@3@4@5@6@7@8@9@0@a@:@<@[@}@|@1@2@3@4@5@6@7@8@9@0@a@:@<@[@}@|@1@2@3@4@5@6@7@8@9@0@a@:@<@[@}@|@1@2@3@4@5@6@7@8@b@c@"};
