/* XPM */
static char * amarelo_xpm[] = {
"64 64 56 1",
" 	c #FFF12E",
".	c #F8E51D",
"+	c #FAE616",
"@	c #FEEB12",
"#	c #FEEB02",
"$	c #FEF003",
"%	c #FEEE0A",
"&	c #FFF00A",
"*	c #FEF007",
"=	c #FFED1D",
"-	c #FFEC21",
";	c #FFEF17",
">	c #FFEF13",
",	c #FFEF2C",
"'	c #FFF120",
")	c #FFEF1B",
"!	c #FFEA2A",
"~	c #F8E21D",
"{	c #F9E314",
"]	c #F6DB19",
"^	c #FAE213",
"/	c #FEE20A",
"(	c #F6DB12",
"_	c #F7EA05",
":	c #FEE102",
"<	c #FFE126",
"[	c #FEDC01",
"}	c #F7E302",
"|	c #FDDA0A",
"1	c #F5D31C",
"2	c #F9D413",
"3	c #FBDA12",
"4	c #F7DA01",
"5	c #FAD91C",
"6	c #FFE22B",
"7	c #FCD501",
"8	c #F6D301",
"9	c #FEDD25",
"0	c #FCD50A",
"a	c #F6CC00",
"b	c #F9D41C",
"c	c #F3CE0C",
"d	c #F5D30C",
"e	c #F5D313",
"f	c #F9CF11",
"g	c #FCCD01",
"h	c #FDCC09",
"i	c #F9CF19",
"j	c #FFDD2C",
"k	c #FFDC33",
"l	c #FBD422",
"m	c #F4CE1B",
"n	c #FED62D",
"o	c #F6DB0D",
"p	c #EFCC17",
"q	c #EECC0B",
" .+@##$#####%&&&******&&%%%%%%%%=--=;>%%****&&%%****************",
",.+@##$#####%%%*####****%%%%%%%%'-=);>%#$$$$**%#**$$*$**$$$$$$$$",
"!~{@##$##################%##%%%%;);>%%###$######*$##############",
"!]^@####################%####%%%/%/%%##$###$####################",
"!](//#########################%%__/####$########################",
"!](//:#:::://#############/#####################################",
"<](/[::::::}}}}//://:::}////:://##:#:##############:############",
"<](|[[::[[[[[}}}}}}}:}}}://::://}}::::::#:::::::}}}}:::#:#:#:###",
"<123[[:[[[[[[[[[::[44[[}[[:}[[[:::[[}::}}:::::::[[[}:}::/::::::}",
"<52|[[[[[[[[[:[[}[[[[[[[[}[}[[[[[[[4[[[[::::::[:[[[}::::::::::::",
"652|77[[[[[[[:[:[[[[[[[[[[[[[[[[[888[|[[[[[[[[[[[[[[[:::::::::::",
"9520a877[777[[[[[[[[[[[[[[[[[:[[[|77|[[[[[[[[[[[[[[[[[[[[:::[[[:",
"9bcdaa7777777[[[777[[[[7[[7[[:[[[[777|[|7[[[[[[[[[[[[[[[[[[[[[[[",
"9efcaagg77777[[[777[[777777[[[[[[[77777777[[[[[[[[[[[[[[[[[[[[[[",
"9efhaagg7707[[[[7777777777[[[[[[[777777[77[[[[[[[[[[[[[[[[[[[[[[",
"9i20aag7777[[[[7777777777[[[[7[[[7777[[[[[[[[[[[[[[[[[[[[[[[[[[[",
"jb207777777[[7777[[[[778[[[[[[[[[[7777777777777[[[[[[[77[[[[[[[[",
"kld7770007[[[[||77[[[[77[[[[[[[[[[7[[[77777777[[77[[[[[[[[[[[[[[",
"kmc8a77707[[[[||877[[[[[77[[[[[7[7[[[[[[777777[[777[[[[[[[7777[[",
"nmc87777777[[[77877[[[[[77[[[[[7[777[[[[[[[[[777[[[[[[[[[[7777[[",
"nmd|7778g777[[7877[[[[[[77[[[[[[7777[[[7[[[[[777[[7[[[[[[[7777[[",
"nl2|[[07777[[[||7[[[[[77[[[[[[[[7777[[77777777[[7777[[[[[[7777[[",
"kl2|77|777[[[[||[[[[7[[[[[[[[[[[[[77[[[787777[[[777[[[[[[[[7[[[[",
"kld7777777[[[[||7[77[[[[[[[77[[[[[[[[[[[77777[77[[[[[[77[[[[[[[[",
"kmd77[|0077[[[||[[[[[[7[[[[7777[[[[[[[77[[[[[[[[777[[[[[[[[[[[[[",
"kld77[|0077[[[||[[[777[[[[[7777[7[[[[[[7[7[[[[7[[[[[[[[[[[7[[[[[",
"kld77777077[[[||[[[777[[[[[[[[[[7[[[[[[[[[[[[777[[[[[[[[[777[[[[",
"kld77777077[[[||[[7777[[[[[[[[[[[[[[[[[[[[[[[[[7[[[[[[[[[77[[[[[",
"kl207777077[[[||[[7777[[[[[[[[[7[[[[[[[[[[[[[[[[[[[[[[[[[777[[[[",
"kld77777077[[[||[[[777[[[[[[[[[7[[[[[[[7[[[[[[[[[[[[[[[[77777[[[",
"kld77777077[[[||[[[[77[[[[[[[7777[[[[[[[[[[[[[[[[[[[[[[[[[77[[[[",
"kbe07777777[[[[[[[[[[[[[[[[77777887[[[[[[[[[[[[[[[[[[[[[[[[[[[[[",
"jled7777777[[[[[[[[[[[[[[[[[[[[[[[[[[[[[:[[[[[[[[[[[[[[[[[[[[[[[",
"652d0|7777[[[7[[[[[[[[[[[[[[[[[[[[[[[[[[[[[[[[[[[[[[[[[[[[[[[[[[",
"652d||7[77[[[7[[[[[[[[[[[[[[[[[[[[[[[[[[[[[[[[[[[[[[[[[[[[[[[[[[",
"652d||7[777777[[[[[[[[[[[[[[[[[[[[[[[[[[[[[[[[[[[[[[[[[[[[[[[[[[",
"<52d|[7[7777[[[[[[[[[778[[[[[[[[[[[[[[[[[[[[[[[[[[[[[[[[[[[[[[[[",
"9]ed0|7[77777[[[[[[[[[78[[[[[[[[[[[[[[[[[[[[[[[[[[[[[[[[[[[[[[[[",
"95ed077[777777[[[[[[[[[7[[[[[[[[[[[[[[[[[[[[[[[[[[[[[[[[[[[[[[[[",
"91dd0777777777[[[[[[[[[[[[[[[[[[[[[[[[[[[[[[[[[[[[[[[[[[[[[[[[[[",
"9ee3|[[8777777[[[[[[[[[[[[[[[[[[[[[[[[[[[[[[[[[[[[[[[[[[[[[[[[[[",
"9e230[[777777[[[[[[[[[[[[[[[[[[[[[[[[[[[[[[[[[[[[[[[[[[[[[[[[[[[",
"9eeo0[[777[[[[[[[[[[[[[[[[[[[[[[[[[[[[[[[[[[[[[[[[[[[[[[[[[[[[[[",
"9eed7[[[[[[[[[[[[[[[[[[[[[[[[[[[[[[[[[[[7[[[[[[[[[[[[[[[[[[[[[[[",
"<eed77|[[[[[[[[[[[[[[[[[[[[[[[[[[[[[[[[[7[[[[[[[[[[[[[[[[[[[[[[[",
"<1ed07[[77[[[[[[[[[[[[[[[[[[[[[[[[[[[[[[[[[[[[[[[[[[[[[[[[[[[[[[",
"<eeo0|[77777[[[[[[[[[[[[[[[[[[[[[[[[[[[[[[[[[[[[[[[[[[[[[[[[[[[[",
"61e30|[77777[[[[[[7[[[[[[[[[[[[[[[[[[[[[[[[[[[[[[[[[[[[[[[[[[[[[",
"652o0[|[[77777[[77777[[[[[[[[[[[[[[[[[[[[[[[[[[[[[[[[[[[[[[[[[[[",
"61ed7|[[[[7777[[77777[[[[[[[[[[[[[[[[[[[[[[[[[[[[[[[[[[[[[[[[[[[",
"9eed87[7[[[[[[[[77777[[[[[[[[[[[[[[[[[[[7[[[[[[[[[[[[[[[[[[[[[[[",
"9edd87[7[[||[[[[77777[[[[[[[[[[[[[[[[[[[77[[[[[[[[[[[[[[[[[[[[[[",
"9eed87[7[[|[[[[[7777[[[[[[[[[[[[[[[[[[[[7[[[[[[[[[[[[[[[[[[[[[[[",
"<1ed77[[[[[[[[[[7777[[[[[[[[[[[[[[[[[[[[[[[[[[[[[[[[[[[[[[[[7[[[",
"<eed77[[777[[[[[777[[[[[[[[[[[[[[[[[[[[[[[[[[[[[[[[[[[[[[[[[[[[[",
"9eed87[7777[[[[[77[[[[77[[[[[[[[[[[[[[[[[[[[[[[[[[[[[[[[[[[[[[[[",
"<pqd77[[[[[[[[[[[[[[[[77[[[[[[[[[[[[[[[[[[[[[[[[[[[[[[[[[[[[[[[[",
"6eqd7|[[777[[[[[[[[[[[77[[[[[[[[[[[[[[[[[[[[[[[[[[[[[[[[[[[[[[[[",
"6eco0|[[7777[[78[7[7[7[[[[[[[[[[[[[[[[[[[[[[[[[[[[[[[[[[[[[[[[[[",
"6ee3|7777777[[[7777777[[7[[[[[[[[[[[[[[[[[[[[[[[[[[[[[[[[[[[[[[[",
"<ee308787777[[[[7777[[[[7[[[[[[[[[[[[[[[[[[[[[[[[[[[[[[[[[[[[[[[",
"<ee308787777[[[[[7[[[[[[7[[[[[[[[[[[[[[[[[[[[[[[[[[[[[[[[[[[[[[[",
"61e308777777[[[[[[[[[[[[7[[[[[[[[[[[[[[[[[[[[[[[[[[[[[[[[[[[[[[[",
"612378[[7777[[[[[[[[[[[[7[[[[[[[[[[[[[[[[[[[[[[7[[[[[[[[[[[[[[[["};
